<svg width="140" height="171" viewBox="0 0 140 171" fill="none" xmlns="http://www.w3.org/2000/svg">
<path d="M139.811 176.524C138.692 201.131 128.16 211.011 123.033 212.875C111.846 212.875 110.45 212.875 97.8672 200.291C85.284 187.706 60.1177 134.58 97.8672 130.386C135.617 126.191 141.209 145.765 139.811 176.524Z" fill="#3A3A3A"/>
<path d="M30.6648 152.13C30.1106 164.324 24.8912 169.22 22.3509 170.144C16.8071 170.144 16.1154 170.144 9.87988 163.907C3.64439 157.671 -8.82659 131.345 9.87988 129.267C28.5863 127.188 31.3577 136.888 30.6648 152.13Z" fill="#3A3A3A"/>
<path d="M30.6648 96.2062C30.1106 108.4 24.8912 113.296 22.3509 114.22C16.8071 114.22 16.1154 114.22 9.87988 107.984C3.64439 101.747 -8.82659 75.4213 9.87988 73.3428C28.5863 71.2643 31.3577 80.9639 30.6648 96.2062Z" fill="#3A3A3A"/>
<path d="M72.6102 96.2062C72.0559 108.4 66.8366 113.296 64.2962 114.22C58.7524 114.22 58.0607 114.22 51.8252 107.984C45.5897 101.747 33.1187 75.4213 51.8252 73.3428C70.5317 71.2643 73.303 80.9639 72.6102 96.2062Z" fill="#3A3A3A"/>
<path d="M115.938 96.2062C115.384 108.4 110.165 113.296 107.624 114.22C102.081 114.22 101.389 114.22 95.1533 107.984C88.9178 101.747 76.4468 75.4213 95.1533 73.3428C113.86 71.2643 116.631 80.9639 115.938 96.2062Z" fill="#3A3A3A"/>
<path d="M58.5747 36.1258C57.7181 54.9709 49.6519 62.5374 45.7258 63.9651C37.1582 63.9651 36.0892 63.9651 26.4525 54.3272C16.8158 44.6893 -2.4575 4.00361 26.4525 0.791385C55.3625 -2.42084 59.6455 12.5695 58.5747 36.1258Z" fill="#3A3A3A"/>
</svg>
