<svg width="53" height="33" viewBox="0 0 53 33" fill="none" xmlns="http://www.w3.org/2000/svg">
<path fill-rule="evenodd" clip-rule="evenodd" d="M36.0772 20.1058C36.0772 20.1058 29.0157 22.5229 21.5019 23.8245C14.2711 24.8815 9.71463 23.2639 9.71463 17.1017C10.0401 10.9395 12.8879 4.08412 8.98234 1.31104C7.64704 0.362929 6.37864 0.0015651 4.66995 0.232712C2.52521 0.522849 0.845503 2.23534 0.520267 4.23807C0.078282 5.33843 -0.458025 18.7626 0.682582 26.653C1.06117 29.2719 2.14761 30.4275 3.69356 31.3518C4.62031 31.8081 5.72771 32.2761 8.16837 31.8909C15.3157 30.7626 28.1033 26.4991 36.0772 20.1058Z" fill="#4E7270"/>
<path fill-rule="evenodd" clip-rule="evenodd" d="M16.0613 11.6305C16.0613 11.6305 23.1523 9.67343 30.666 8.37179C37.8968 7.31478 42.4533 8.93236 42.4533 15.0946C42.1279 21.2568 39.2801 28.1122 43.1856 30.8853C44.5209 31.8334 45.7893 32.1947 47.498 31.9636C49.6428 31.6734 51.3225 29.961 51.6477 27.9582C52.0897 26.8579 52.626 13.4337 51.4854 5.5433C51.1068 2.92436 50.0204 1.7688 48.4744 0.844469C47.5477 0.388224 46.4403 -0.0798607 43.9996 0.305428C36.8523 1.43372 26.3626 5.5433 16.0613 11.6305Z" fill="#FFB26B"/>
</svg>
